<?xml version="1.0" encoding="UTF-8" standalone="no"?>
<!DOCTYPE svg PUBLIC "-//W3C//DTD SVG 1.1//EN" "http://www.w3.org/Graphics/SVG/1.1/DTD/svg11.dtd">
<svg width="100%" height="100%" viewBox="0 0 103 29" version="1.1" xmlns="http://www.w3.org/2000/svg" xmlns:xlink="http://www.w3.org/1999/xlink" xml:space="preserve" xmlns:serif="http://www.serif.com/" style="fill-rule:evenodd;clip-rule:evenodd;stroke-linejoin:round;stroke-miterlimit:2;">
    <g transform="matrix(1,0,0,1,-1.46337,-1.31832)">
        <g id="Curves">
            <g transform="matrix(0.207117,0,0,0.205515,9.20005,10.9782)">
                <path d="M0,-28.927C13.828,-28.927 15.661,-1.829 15.708,14.476L36.127,18.076C36.143,17.098 36.153,16.126 36.153,15.165C36.153,-12.203 29.902,-47.003 0,-47.003C-26.275,-47.003 -34.339,-19.826 -35.86,5.383L-15.62,8.951C-15.134,-7.288 -12.354,-28.927 0,-28.927" style="fill:rgb(49,140,196);fill-rule:nonzero;"/>
            </g>
            <g transform="matrix(0.207117,0,0,0.205515,9.20005,26.8717)">
                <path d="M0,0.001C0.016,0.001 0.03,0 0.046,0L-0.046,0C-0.031,0 -0.016,0.001 0,0.001" style="fill:rgb(49,140,196);fill-rule:nonzero;"/>
            </g>
            <g transform="matrix(0.207117,0,0,0.205515,30.1251,17.045)">
                <path d="M0,-74.157L-18.076,-74.157L-48.822,-51.351L-39.7,-35.64L-19.765,-50.676L-19.765,-3.486L0,0L0,-74.157Z" style="fill:rgb(49,140,196);fill-rule:nonzero;"/>
            </g>
            <g transform="matrix(0.207117,0,0,0.205515,44.1905,26.8717)">
                <path d="M0,0.001C0.016,0.001 0.031,0 0.046,0L-0.046,0C-0.03,0 -0.016,0.001 0,0.001" style="fill:rgb(49,140,196);fill-rule:nonzero;"/>
            </g>
            <g transform="matrix(0.207117,0,0,0.205515,40.9366,7.90776)">
                <path d="M0,30.109C0,13.891 1.69,-13.983 15.711,-13.983C29.733,-13.983 31.422,13.891 31.422,30.109C31.422,38.435 30.982,49.679 28.713,58.73L48.208,62.168C50.959,51.948 51.864,40.495 51.864,30.109C51.864,2.741 45.613,-32.059 15.711,-32.059C-14.021,-32.059 -20.441,2.741 -20.441,30.109C-20.441,36.608 -20.072,43.524 -19.122,50.296L1.708,53.968C0.306,45.954 0,37.025 0,30.109" style="fill:rgb(49,140,196);fill-rule:nonzero;"/>
            </g>
            <g transform="matrix(0.207117,0,0,0.205515,65.1141,23.168)">
                <path d="M0,-103.945L-18.076,-103.945L-48.821,-81.139L-39.7,-65.428L-19.765,-80.464L-19.765,-3.486L0,0L0,-103.945Z" style="fill:rgb(49,140,196);fill-rule:nonzero;"/>
            </g>
            <g transform="matrix(0.207117,0,0,0.205515,82.6093,26.2281)">
                <path d="M0,-118.838L-18.075,-118.838L-48.821,-96.032L-39.699,-80.321L-19.765,-95.357L-19.765,-3.484L0,0L0,-118.838Z" style="fill:rgb(49,140,196);fill-rule:nonzero;"/>
            </g>
            <g transform="matrix(0.207117,0,0,0.205515,96.6747,5.03416)">
                <path d="M0,88.183C-14.021,88.183 -15.711,60.478 -15.711,44.091C-15.711,27.873 -14.021,-0.001 0,-0.001C14.022,-0.001 15.711,27.873 15.711,44.091C15.711,60.478 14.022,88.183 0,88.183M0,-18.077C-29.731,-18.077 -36.151,16.723 -36.151,44.091C-36.151,71.459 -29.731,106.26 0,106.26C29.902,106.26 36.153,71.459 36.153,44.091C36.153,16.723 29.902,-18.077 0,-18.077" style="fill:rgb(49,140,196);fill-rule:nonzero;"/>
            </g>
            <g transform="matrix(0.207117,0,0,0.205515,3.33052,26.9886)">
                <path d="M0,13.778C-3.957,13.778 -6.523,10.676 -6.523,6.889C-6.523,3.102 -3.957,-0.001 0,-0.001C3.958,-0.001 6.523,3.102 6.523,6.889C6.523,10.676 3.958,13.778 0,13.778M0,15.977C5.277,15.977 9.015,12.019 9.015,6.889C9.015,1.759 5.277,-2.199 0,-2.199C-5.277,-2.199 -9.015,1.759 -9.015,6.889C-9.015,12.019 -5.277,15.977 0,15.977" style="fill:rgb(49,140,196);fill-rule:nonzero;"/>
            </g>
            <g transform="matrix(0.207117,0,0,0.205515,5.89546,26.6276)">
                <path d="M0,17.297L2.345,17.297L2.345,3.079L2.394,3.079L12.02,17.297L15,17.297L15,0L12.655,0L12.655,14.219L12.606,14.219L3.078,0L0,0L0,17.297Z" style="fill:rgb(49,140,196);fill-rule:nonzero;"/>
            </g>
            <g transform="matrix(0.207117,0,0,0.205515,9.9233,26.6276)">
                <path d="M0,17.297L11.604,17.297L11.604,15.099L2.345,15.099L2.345,9.553L10.554,9.553L10.554,7.354L2.345,7.354L2.345,2.199L11.165,2.199L11.165,0L0,0L0,17.297Z" style="fill:rgb(49,140,196);fill-rule:nonzero;"/>
            </g>
            <g transform="matrix(0.207117,0,0,0.205515,16.0672,26.9886)">
                <path d="M0,13.778C-3.958,13.778 -6.523,10.676 -6.523,6.889C-6.523,3.102 -3.958,-0.001 0,-0.001C3.958,-0.001 6.523,3.102 6.523,6.889C6.523,10.676 3.958,13.778 0,13.778M0,15.977C5.277,15.977 9.015,12.019 9.015,6.889C9.015,1.759 5.277,-2.199 0,-2.199C-5.277,-2.199 -9.015,1.759 -9.015,6.889C-9.015,12.019 -5.277,15.977 0,15.977" style="fill:rgb(49,140,196);fill-rule:nonzero;"/>
            </g>
            <g transform="matrix(0.207117,0,0,0.205515,18.6321,26.6276)">
                <path d="M0,17.297L2.346,17.297L2.346,3.079L2.394,3.079L12.02,17.297L15.001,17.297L15.001,0L12.655,0L12.655,14.219L12.606,14.219L3.078,0L0,0L0,17.297Z" style="fill:rgb(49,140,196);fill-rule:nonzero;"/>
            </g>
            <g transform="matrix(0.207117,0,0,0.205515,22.66,26.6276)">
                <path d="M0,17.297L11.605,17.297L11.605,15.099L2.345,15.099L2.345,9.553L10.554,9.553L10.554,7.354L2.345,7.354L2.345,2.199L11.165,2.199L11.165,0L0,0L0,17.297Z" style="fill:rgb(49,140,196);fill-rule:nonzero;"/>
            </g>
            <g transform="matrix(0.207117,0,0,0.205515,27.9077,26.6276)">
                <path d="M0,17.297L2.345,17.297L2.345,2.199L7.915,2.199L7.915,0L-5.57,0L-5.57,2.199L0,2.199L0,17.297Z" style="fill:rgb(49,140,196);fill-rule:nonzero;"/>
            </g>
            <g transform="matrix(0.207117,0,0,0.205515,30.0625,26.6276)">
                <path d="M0,17.297L11.605,17.297L11.605,15.099L2.346,15.099L2.346,9.553L10.554,9.553L10.554,7.354L2.346,7.354L2.346,2.199L11.165,2.199L11.165,0L0,0L0,17.297Z" style="fill:rgb(49,140,196);fill-rule:nonzero;"/>
            </g>
            <g transform="matrix(0.207117,0,0,0.205515,33.1538,26.6276)">
                <path d="M0,17.297L2.345,17.297L2.345,3.079L2.394,3.079L12.02,17.297L15,17.297L15,0L12.655,0L12.655,14.219L12.606,14.219L3.078,0L0,0L0,17.297Z" style="fill:rgb(49,140,196);fill-rule:nonzero;"/>
            </g>
        </g>
    </g>
</svg>
